<mxfile host="app.diagrams.net" agent="Mozilla/5.0 (Windows NT 10.0; Win64; x64; rv:139.0) Gecko/20100101 Firefox/139.0" version="27.1.4">
  <diagram name="Page-1" id="JnAjO2oJWAjyHfWthbay">
    <mxGraphModel dx="1426" dy="1343" grid="0" gridSize="10" guides="1" tooltips="1" connect="1" arrows="1" fold="1" page="0" pageScale="1" pageWidth="850" pageHeight="1100" math="0" shadow="0">
      <root>
        <mxCell id="0" />
        <mxCell id="1" parent="0" />
        <mxCell id="QLZv3CAXdcl9bIwJBePk-7" style="edgeStyle=orthogonalEdgeStyle;rounded=0;orthogonalLoop=1;jettySize=auto;html=1;exitX=1;exitY=0.5;exitDx=0;exitDy=0;entryX=0.5;entryY=0;entryDx=0;entryDy=0;fontSize=12;startSize=8;endSize=8;" edge="1" parent="1" source="QLZv3CAXdcl9bIwJBePk-1" target="QLZv3CAXdcl9bIwJBePk-2">
          <mxGeometry relative="1" as="geometry" />
        </mxCell>
        <mxCell id="QLZv3CAXdcl9bIwJBePk-1" value="Analisis Sistem" style="rounded=0;whiteSpace=wrap;html=1;" vertex="1" parent="1">
          <mxGeometry x="24" y="-81" width="120" height="60" as="geometry" />
        </mxCell>
        <mxCell id="QLZv3CAXdcl9bIwJBePk-9" style="edgeStyle=orthogonalEdgeStyle;rounded=0;orthogonalLoop=1;jettySize=auto;html=1;exitX=1;exitY=0.5;exitDx=0;exitDy=0;entryX=0.5;entryY=0;entryDx=0;entryDy=0;fontSize=12;startSize=8;endSize=8;" edge="1" parent="1" source="QLZv3CAXdcl9bIwJBePk-2" target="QLZv3CAXdcl9bIwJBePk-3">
          <mxGeometry relative="1" as="geometry" />
        </mxCell>
        <mxCell id="QLZv3CAXdcl9bIwJBePk-2" value="Desain Sistem" style="rounded=0;whiteSpace=wrap;html=1;" vertex="1" parent="1">
          <mxGeometry x="160" y="3" width="120" height="60" as="geometry" />
        </mxCell>
        <mxCell id="QLZv3CAXdcl9bIwJBePk-10" style="edgeStyle=orthogonalEdgeStyle;rounded=0;orthogonalLoop=1;jettySize=auto;html=1;exitX=1;exitY=0.5;exitDx=0;exitDy=0;entryX=0.5;entryY=0;entryDx=0;entryDy=0;fontSize=12;startSize=8;endSize=8;" edge="1" parent="1" source="QLZv3CAXdcl9bIwJBePk-3" target="QLZv3CAXdcl9bIwJBePk-4">
          <mxGeometry relative="1" as="geometry" />
        </mxCell>
        <mxCell id="QLZv3CAXdcl9bIwJBePk-3" value="Implementasi Kode Program" style="rounded=0;whiteSpace=wrap;html=1;" vertex="1" parent="1">
          <mxGeometry x="294" y="85" width="120" height="60" as="geometry" />
        </mxCell>
        <mxCell id="QLZv3CAXdcl9bIwJBePk-11" style="edgeStyle=orthogonalEdgeStyle;rounded=0;orthogonalLoop=1;jettySize=auto;html=1;exitX=1;exitY=0.5;exitDx=0;exitDy=0;entryX=0.5;entryY=0;entryDx=0;entryDy=0;fontSize=12;startSize=8;endSize=8;" edge="1" parent="1" source="QLZv3CAXdcl9bIwJBePk-4" target="QLZv3CAXdcl9bIwJBePk-5">
          <mxGeometry relative="1" as="geometry" />
        </mxCell>
        <mxCell id="QLZv3CAXdcl9bIwJBePk-4" value="Pengujian Kode Program" style="rounded=0;whiteSpace=wrap;html=1;" vertex="1" parent="1">
          <mxGeometry x="444" y="163" width="120" height="60" as="geometry" />
        </mxCell>
        <mxCell id="QLZv3CAXdcl9bIwJBePk-12" style="edgeStyle=orthogonalEdgeStyle;rounded=0;orthogonalLoop=1;jettySize=auto;html=1;exitX=0;exitY=0.5;exitDx=0;exitDy=0;entryX=0.5;entryY=1;entryDx=0;entryDy=0;fontSize=12;startSize=8;endSize=8;" edge="1" parent="1" source="QLZv3CAXdcl9bIwJBePk-5" target="QLZv3CAXdcl9bIwJBePk-4">
          <mxGeometry relative="1" as="geometry" />
        </mxCell>
        <mxCell id="QLZv3CAXdcl9bIwJBePk-13" style="edgeStyle=orthogonalEdgeStyle;rounded=0;orthogonalLoop=1;jettySize=auto;html=1;exitX=0;exitY=0.5;exitDx=0;exitDy=0;entryX=0.5;entryY=1;entryDx=0;entryDy=0;fontSize=12;startSize=8;endSize=8;" edge="1" parent="1" source="QLZv3CAXdcl9bIwJBePk-5" target="QLZv3CAXdcl9bIwJBePk-3">
          <mxGeometry relative="1" as="geometry" />
        </mxCell>
        <mxCell id="QLZv3CAXdcl9bIwJBePk-14" style="edgeStyle=orthogonalEdgeStyle;rounded=0;orthogonalLoop=1;jettySize=auto;html=1;exitX=0;exitY=0.5;exitDx=0;exitDy=0;entryX=0.5;entryY=1;entryDx=0;entryDy=0;fontSize=12;startSize=8;endSize=8;" edge="1" parent="1" source="QLZv3CAXdcl9bIwJBePk-5" target="QLZv3CAXdcl9bIwJBePk-2">
          <mxGeometry relative="1" as="geometry" />
        </mxCell>
        <mxCell id="QLZv3CAXdcl9bIwJBePk-15" style="edgeStyle=orthogonalEdgeStyle;rounded=0;orthogonalLoop=1;jettySize=auto;html=1;exitX=0;exitY=0.5;exitDx=0;exitDy=0;entryX=0.5;entryY=1;entryDx=0;entryDy=0;fontSize=12;startSize=8;endSize=8;" edge="1" parent="1" source="QLZv3CAXdcl9bIwJBePk-5" target="QLZv3CAXdcl9bIwJBePk-1">
          <mxGeometry relative="1" as="geometry" />
        </mxCell>
        <mxCell id="QLZv3CAXdcl9bIwJBePk-5" value="Penerapan dan Pemeliharaan Program" style="rounded=0;whiteSpace=wrap;html=1;" vertex="1" parent="1">
          <mxGeometry x="590" y="249" width="120" height="60" as="geometry" />
        </mxCell>
      </root>
    </mxGraphModel>
  </diagram>
</mxfile>
